
<svg width="23" height="22" viewBox="0 0 23 22" fill="none" xmlns="http://www.w3.org/2000/svg">
<path d="M21.0834 6.90674V15.583C21.0835 16.2844 20.8033 16.9594 20.3002 17.4697C19.7971 17.9801 19.1091 18.2873 18.3771 18.3284L18.2084 18.333H4.79175C4.05842 18.333 3.3528 18.065 
2.81925 17.5838C2.2857 17.1026 1.96456 16.4446 1.92154 15.7443L1.91675 15.583V6.90674L10.9682 12.679L11.0794 12.7395C11.2104 12.8007 11.3543 12.8325 11.5001 12.8325C11.6459 12.8325 
11.5001 12.8325C11.6459 12.8325 11.7898 12.8007 11.9208 12.7395L12.032 12.679L21.0834 6.90674Z" fill="black"/>
<path d="M18.2085 3.6665C19.2435 3.6665 20.151 4.189 20.657 4.97459L11.5001 10.8138L2.34326 4.97459C2.5836 4.60134 2.91375 4.28846 3.30617 4.06204C3.69859 3.83561 4.14191 3.7022 4.59918 3.67292L4.7918 3.6665H18.2085z" fill="black"/> 
</svg>