
<svg width="30" height="30" viewBox="0 0 30 30" fill="none" xmlns="http://www.w3.org/2000/svg">
<path d="M25.6086 21.4248L20.5274 16.8048C20.2873 16.5862 19.9716 16.4696 19.6471 16.4796C19.3226 16.4896 19.0147 16.6255 18.7886 16.8586L15.7974 19.9348C15.0774 19.7973 13.6299 
19.3461 12.1399 17.8598C10.6499 16.3686 10.1986 14.9173 10.0649 14.2023L13.1386 11.2098C13.3716 10.9837 13.5075 10.6758 13.5176 10.3513C13.5276 10.0268 13.411 9.71111 13.1924 
9.47106L8.57362 4.39106C8.35492 4.15026 8.05096 4.00419 7.72631 3.98389C7.40165 3.96358 7.08186 4.07063 6.83486 4.28231L4.12236 6.60856C3.90625 6.82545 3.77726 7.11412 3.75986 
7.41981C3.74111 7.73231 3.38361 15.1348 9.12361 20.8773C14.1311 25.8836 20.4036 26.2498 22.1311 26.2498C22.3836 26.2498 22.5386 26.2423 22.5799 26.2398C22.8853 26.2218 23.1735 26.0924 
23.3899 25.8761L25.7149 23.1623C25.9274 22.9161 26.0352 22.5966 26.0154 22.2719C25.9955 21.9473 25.8495 21.6433 25.6086 21.42487" fill="black"/>
</svg>