<svg width="16" height="16" viewBox="0 0 16 16" fill="none" xmlns="http://www.w3.org/2000/svg">
  <path d="M9.33333 3.66667C9.33333 3.48986 9.26309 3.32029 9.13807 3.19526C9.01305 3.07024 8.84348 3 8.66667 3C8.48986 3 8.32029 3.07024 8.19526 3.19526C8.07024 3.32029 8 3.48986 8 3.66667V7H4.66667C4.48986 7 4.32029 7.07024 4.19526 7.19526C4.07024 7.32029 4 7.48986 4 7.66667C4 7.84348 4.07024 8.01305 4.19526 8.13807C4.32029 8.26309 4.48986 8.33333 4.66667 8.33333H8V11.6667C8 11.8435 8.07024 12.0131 8.19526 12.1381C8.32029 12.2631 8.48986 12.3333 8.66667 12.3333C8.84348 12.3333 9.01305 12.2631 9.13807 12.1381C9.26309 12.0131 9.33333 11.8435 9.33333 11.6667V8.33333H12.6667C12.8435 8.33333 13.0131 8.26309 13.1381 8.13807C13.2631 8.01305 13.3333 7.84348 13.3333 7.66667C13.3333 7.48986 13.2631 7.32029 13.1381 7.19526C13.0131 7.07024 12.8435 7 12.6667 7H9.33333V3.66667Z" fill="black"/>
</svg>
