
<svg width="38" height="38" viewBox="0 0 38 38" fill="none" xmlns="http://www.w3.org/2000/svg">
<path d="M34.8316 38L35.1862 37.981C35.7493 37.9179 36.2852 37.7048 36.7379 37.364C37.1906 37.0231 37.5436 36.5671 37.76 36.0434C37.9764 35.5197 38.0483 34.9475 37.9682 34.3866C37.8881 
33.8256 37.659 33.2964 37.3047 32.8542L26.2182 19L37.3016 5.14583C37.6743 4.68025 37.908 4.11885 37.9758 3.52627C38.0435 2.9337 37.9425 2.33404 37.6844 1.79635C37.4263 1.25865 
37.0216 0.804779 36.5169 0.486976C36.0122 0.169176 35.428 0.000371094 34.8316 0H15.8316C15.3572 0.000297648 14.889 0.107161 14.4614 0.312701C14.0339 0.51824 13.658 0.817199 13.3616 1.1875L0.694896 17.0208C0.245216 17.5825 0.000212606 18.2805 0.000212606 19C0.000212606 19.7195 0.245216 20.4175 0.694896 20.9792L13.3616 36.8125C13.658 37.1828 14.0339 37.4818 14.4614 37.6873C14.889 37.8928 15.3572 37.9997 15.8316 38H34.8316Z" fill="#D76C82"/>
</svg>